PathFileType	4	(X/Y/Z)	C:/Users/opensim2020/Desktop/walking_exp_matlab/subject06_walking23_straight_01.trc																																																																																																																																					
DataRate	CameraRate	NumFrames	NumMarkers	Units	OrigDataRate	OrigDataStartFrame	OrigNumFrames																																																																																																																																	
100	100	4	45	mm	100	738	106																																																																																																																																	
Frame#	Time	LFHD			RFHD			LBHD			RBHD			C7			T10			CLAV			STRN			RBAK			LSHO			LUPA			LELB			LFRM			LWRA			LWRB			LFIN			RSHO			RUPA			RELB			RFRM			RWRA			RWRB			RFIN			LASI			RASI			LPSI			RPSI			LTHI			LKNE			LTIB			LANK			LHEE			LTOE			RTHI			RKNE			RTIB			RANK			RHEE			RTOE			*39			*40			*41			*42			*43			*44		
		X1	Y1	Z1	X2	Y2	Z2	X3	Y3	Z3	X4	Y4	Z4	X5	Y5	Z5	X6	Y6	Z6	X7	Y7	Z7	X8	Y8	Z8	X9	Y9	Z9	X10	Y10	Z10	X11	Y11	Z11	X12	Y12	Z12	X13	Y13	Z13	X14	Y14	Z14	X15	Y15	Z15	X16	Y16	Z16	X17	Y17	Z17	X18	Y18	Z18	X19	Y19	Z19	X20	Y20	Z20	X21	Y21	Z21	X22	Y22	Z22	X23	Y23	Z23	X24	Y24	Z24	X25	Y25	Z25	X26	Y26	Z26	X27	Y27	Z27	X28	Y28	Z28	X29	Y29	Z29	X30	Y30	Z30	X31	Y31	Z31	X32	Y32	Z32	X33	Y33	Z33	X34	Y34	Z34	X35	Y35	Z35	X36	Y36	Z36	X37	Y37	Z37	X38	Y38	Z38	X39	Y39	Z39	X40	Y40	Z40	X41	Y41	Z41	X42	Y42	Z42	X43	Y43	Z43	X44	Y44	Z44	X45	Y45	Z45
																																																																																																																																								
1	0	-847.65857	1651.33044	1323.63647	-844.56628	1645.93701	1455.13501	-984.66675	1606.40027	1328.9585	-979.42487	1605.56262	1458.22742	-994.20306	1452.64368	1384.5448	-1064.14124	1131.09741	1396.61926	-891.22516	1365.98572	1395.22766	-869.89264	1187.22278	1392.71912	-1088.14209	1293.43628	1458.84167	-929.98926	1401.05603	1229.04785	-935.06604	1201.73743	1149.42822	-940.08612	1090.08972	1130.3385	-901.3103	945.93988	1102.78528	-829.57416	837.09534	1142.66748	-887.91864	827.38831	1102.13232	-837.89978	751.20551	1100.34985	-945.36304	1406.78113	1551.39465	-1035.88806	1229.10364	1638.8894	-1060.67871	1109.91614	1656.72009	-1084.87695	993.09686	1681.10608	-1069.328	840.20947	1665.40942	-1126.37842	860.914	1696.15381	-1116.00122	777.40424	1705.96484	-906.61511	954.71606	1292.82141	-914.34875	956.59698	1511.1532	-1060.32739	999.79712	1317.55835	-1061.39368	993.73468	1484.60034	-998.82544	649.10474	1235.276	-1013.74713	486.29388	1262.5979	-1089.89075	238.7088	1272.85339	-1121.229	70.18002	1323.89734	-1166.5116	58.84897	1366.42371	-980.28613	40.80463	1332.25745	-899.69946	642.07404	1579.62439	-842.98981	529.36084	1565.08301	-960.59039	301.45676	1538.60828	-1049.38794	144.54828	1478.91138	-1087.95715	134.56921	1426.35461	-925.88354	60.39872	1504.22766	-943.65527	1698.56982	1383.39575	NaN	NaN	NaN	NaN	NaN	NaN	NaN	NaN	NaN	NaN	NaN	NaN	NaN	NaN	NaN
2	0.01	-836.71979	1650.17847	1323.74915	-833.83142	1644.56421	1455.27441	-973.68799	1605.23279	1328.96936	-968.53296	1604.22302	1458.21619	-983.36652	1451.4303	1384.2229	-1052.97449	1129.79553	1396.48181	-880.26782	1364.86328	1394.96753	-858.84222	1186.13196	1391.9231	-1077.28662	1292.03235	1458.02881	-919.04749	1400.12952	1228.68909	-922.02032	1200.97717	1148.80835	-925.09387	1089.18945	1129.47839	-882.37109	946.21033	1102.46313	-806.95624	840.0235	1142.67761	-865.13391	828.02771	1102.5592	-812.42145	753.68713	1100.79517	-934.91992	1405.33521	1551.02661	-1026.33008	1227.91785	1637.75781	-1051.79321	1108.91174	1655.38672	-1077.85815	992.52887	1679.79663	-1064.82495	839.38379	1664.57642	-1121.71204	860.95941	1694.98462	-1112.81946	777.26837	1704.90393	-896.19879	953.29816	1291.9165	-902.43958	955.40765	1509.77478	-1049.73755	998.5871	1317.78235	-1049.18811	992.59332	1484.84009	-991.86011	647.78137	1235.15332	-1008.54352	485.23135	1262.59583	-1087.11096	238.35381	1273.57471	-1120.89343	70.57614	1324.39746	-1166.08044	59.71585	1367.33411	-980.07697	40.44865	1332.33167	-883.31	643.09857	1578.85559	-825.43597	531.03772	1563.45471	-933.66803	296.97131	1537.77014	-1013.4317	134.98018	1478.79724	-1051.46179	123.09531	1426.2666	-886.03314	57.64851	1505.64331	-932.72723	1697.34912	1383.53003	NaN	NaN	NaN	NaN	NaN	NaN	NaN	NaN	NaN	NaN	NaN	NaN	NaN	NaN	NaN
3	0.02	-825.59808	1648.91333	1323.99829	-822.82568	1643.10583	1455.47009	-962.63153	1603.87097	1328.99561	-957.56506	1602.68372	1458.21643	-972.3952	1450.01526	1383.92468	-1041.65833	1128.31152	1396.49304	-869.34656	1363.48657	1394.59436	-847.5705	1184.91443	1391.21313	-1066.2478	1290.46729	1457.32861	-907.93121	1399.08801	1228.38574	-909.01202	1200.03491	1148.28357	-910.35358	1088.22314	1128.6853	-863.21045	946.34589	1102.20557	-784.41449	843.14545	1142.86841	-842.33057	828.76703	1103.14026	-787.07343	756.48273	1101.4762	-924.29651	1403.73071	1550.73669	-1016.56177	1226.5304	1636.65723	-1042.64172	1107.71521	1654.03784	-1070.58362	991.75616	1678.56311	-1060.15552	838.44312	1663.98462	-1116.81079	860.96326	1693.88074	-1109.38733	777.0495	1703.88123	-886.12506	951.71228	1290.91284	-889.40955	954.44769	1509.104	-1039.08911	997.13885	1318.12036	-1037.31543	991.32446	1485.09741	-984.0426	646.53729	1235.64136	-1003.02313	484.05429	1262.57263	-1085.00806	238.37018	1273.66943	-1120.34802	70.833	1324.86255	-1165.64355	60.35345	1367.91577	-979.71918	40.28926	1332.39893	-867.46399	643.75293	1578.26233	-808.64386	532.18304	1561.98096	-906.73987	292.23087	1537.12708	-976.61786	125.50905	1478.71997	-1013.35577	111.45618	1425.8158	-845.67566	54.91758	1506.86035	-921.77069	1695.92725	1383.68359	NaN	NaN	NaN	NaN	NaN	NaN	NaN	NaN	NaN	NaN	NaN	NaN	NaN	NaN	NaN
4	0.03	-814.63678	1647.54578	1324.15015	-811.98737	1641.47668	1455.62012	-951.46326	1602.3363	1329.05518	-946.54285	1600.98291	1458.32336	-961.28088	1448.47095	1383.67676	-1030.21729	1126.69971	1396.53955	-858.14526	1361.97754	1394.40076	-836.27899	1183.4917	1390.58069	-1055.06812	1288.66821	1456.73352	-896.73523	1397.901	1228.14722	-895.99976	1199.00159	1147.84143	-895.69208	1087.19836	1128.00195	-844.36615	946.58447	1102.08313	-762.38464	846.2757	1142.85266	-819.57837	829.76361	1103.953	-761.68365	759.65839	1102.37585	-913.45538	1401.97351	1550.47034	-1006.44293	1224.93115	1635.57483	-1033.27734	1106.40576	1652.82385	-1063.06458	990.88831	1677.35425	-1055.18445	837.24182	1663.55591	-1111.68005	861.00671	1692.91284	-1105.85059	776.93787	1703.22314	-875.31781	950.12573	1289.96704	-876.88721	953.04437	1508.15222	-1028.50586	995.62799	1318.6488	-1025.77002	990.02454	1485.40845	-976.50787	645.19434	1235.74841	-997.24432	482.84412	1262.49878	-1082.76245	238.26427	1273.63599	-1119.81067	71.30769	1325.323	-1165.11292	61.0777	1368.47363	-979.28839	40.26041	1332.25757	-852.06702	644.00891	1578.14282	-792.66693	532.86713	1560.61621	-879.70197	287.34741	1536.60889	-939.15155	116.39403	1478.77209	-974.80115	100.5536	1425.70728	-805.03241	52.25405	1507.77075	-910.73224	1694.36963	1383.91492	NaN	NaN	NaN	NaN	NaN	NaN	NaN	NaN	NaN	NaN	NaN	NaN	NaN	NaN	NaN
